<mxfile host="app.diagrams.net" modified="2023-04-23T07:36:25.072Z" agent="Mozilla/5.0 (Windows NT 10.0; Win64; x64) AppleWebKit/537.36 (KHTML, like Gecko) Chrome/112.0.0.0 Safari/537.36" etag="GPFYr772Oc07vUPi1Aoj" version="21.2.1" type="github">
  <diagram name="Page-1" id="b5b7bab2-c9e2-2cf4-8b2a-24fd1a2a6d21">
    <mxGraphModel dx="4598" dy="2044" grid="1" gridSize="10" guides="1" tooltips="1" connect="1" arrows="1" fold="1" page="1" pageScale="1" pageWidth="827" pageHeight="1169" background="none" math="0" shadow="0">
      <root>
        <mxCell id="0" />
        <mxCell id="1" parent="0" />
        <mxCell id="44vKcgO6JZs-gFAmP7-q-1" value="&lt;font style=&quot;font-size: 20px;&quot;&gt;用户&lt;/font&gt;" style="rounded=0;whiteSpace=wrap;html=1;" parent="1" vertex="1">
          <mxGeometry x="40" y="595" width="150" height="90" as="geometry" />
        </mxCell>
        <mxCell id="44vKcgO6JZs-gFAmP7-q-2" value="" style="endArrow=classic;html=1;rounded=0;entryX=0;entryY=0.25;entryDx=0;entryDy=0;" parent="1" target="44vKcgO6JZs-gFAmP7-q-3" edge="1">
          <mxGeometry width="50" height="50" relative="1" as="geometry">
            <mxPoint x="190" y="610" as="sourcePoint" />
            <mxPoint x="330" y="640" as="targetPoint" />
          </mxGeometry>
        </mxCell>
        <mxCell id="44vKcgO6JZs-gFAmP7-q-3" value="&lt;font style=&quot;font-size: 20px;&quot;&gt;基于JavaScript GL API 的物流追踪系统&lt;/font&gt;" style="rounded=1;whiteSpace=wrap;html=1;" parent="1" vertex="1">
          <mxGeometry x="410" y="580" width="231" height="120" as="geometry" />
        </mxCell>
        <mxCell id="44vKcgO6JZs-gFAmP7-q-4" value="管理货物信息" style="text;html=1;align=center;verticalAlign=middle;resizable=0;points=[];autosize=1;strokeColor=none;fillColor=none;" parent="1" vertex="1">
          <mxGeometry x="240" y="585" width="100" height="30" as="geometry" />
        </mxCell>
        <mxCell id="44vKcgO6JZs-gFAmP7-q-5" value="" style="endArrow=classic;html=1;rounded=0;entryX=0;entryY=0.5;entryDx=0;entryDy=0;" parent="1" edge="1">
          <mxGeometry width="50" height="50" relative="1" as="geometry">
            <mxPoint x="640" y="600" as="sourcePoint" />
            <mxPoint x="780" y="600" as="targetPoint" />
          </mxGeometry>
        </mxCell>
        <mxCell id="44vKcgO6JZs-gFAmP7-q-6" value="" style="endArrow=classic;html=1;rounded=0;exitX=1;exitY=0.75;exitDx=0;exitDy=0;" parent="1" source="44vKcgO6JZs-gFAmP7-q-1" edge="1">
          <mxGeometry width="50" height="50" relative="1" as="geometry">
            <mxPoint x="360" y="680" as="sourcePoint" />
            <mxPoint x="410" y="663" as="targetPoint" />
          </mxGeometry>
        </mxCell>
        <mxCell id="44vKcgO6JZs-gFAmP7-q-7" value="" style="endArrow=classic;html=1;rounded=0;exitX=1;exitY=0.75;exitDx=0;exitDy=0;entryX=0;entryY=0.5;entryDx=0;entryDy=0;" parent="1" source="44vKcgO6JZs-gFAmP7-q-3" edge="1">
          <mxGeometry width="50" height="50" relative="1" as="geometry">
            <mxPoint x="641" y="660" as="sourcePoint" />
            <mxPoint x="780" y="670" as="targetPoint" />
          </mxGeometry>
        </mxCell>
        <mxCell id="44vKcgO6JZs-gFAmP7-q-9" value="发布并管理物流" style="text;html=1;align=center;verticalAlign=middle;resizable=0;points=[];autosize=1;strokeColor=none;fillColor=none;" parent="1" vertex="1">
          <mxGeometry x="230" y="630" width="110" height="30" as="geometry" />
        </mxCell>
        <mxCell id="44vKcgO6JZs-gFAmP7-q-16" value="货物信息" style="text;html=1;align=center;verticalAlign=middle;resizable=0;points=[];autosize=1;strokeColor=none;fillColor=none;" parent="1" vertex="1">
          <mxGeometry x="675" y="570" width="70" height="30" as="geometry" />
        </mxCell>
        <mxCell id="44vKcgO6JZs-gFAmP7-q-17" value="物流信息" style="text;html=1;align=center;verticalAlign=middle;resizable=0;points=[];autosize=1;strokeColor=none;fillColor=none;" parent="1" vertex="1">
          <mxGeometry x="675" y="630" width="70" height="30" as="geometry" />
        </mxCell>
        <mxCell id="44vKcgO6JZs-gFAmP7-q-19" value="&lt;font style=&quot;font-size: 30px;&quot;&gt;顶层数据流图：&lt;/font&gt;" style="text;html=1;align=center;verticalAlign=middle;resizable=0;points=[];autosize=1;strokeColor=none;fillColor=none;" parent="1" vertex="1">
          <mxGeometry x="-55" y="478" width="230" height="50" as="geometry" />
        </mxCell>
        <mxCell id="44vKcgO6JZs-gFAmP7-q-20" value="&lt;font style=&quot;font-size: 30px;&quot;&gt;0层数据流图：&lt;/font&gt;" style="text;html=1;align=center;verticalAlign=middle;resizable=0;points=[];autosize=1;strokeColor=none;fillColor=none;" parent="1" vertex="1">
          <mxGeometry x="-75" y="790" width="220" height="50" as="geometry" />
        </mxCell>
        <mxCell id="44vKcgO6JZs-gFAmP7-q-21" value="&lt;font style=&quot;font-size: 20px;&quot;&gt;用户&lt;/font&gt;" style="rounded=0;whiteSpace=wrap;html=1;" parent="1" vertex="1">
          <mxGeometry x="-5" y="1060" width="150" height="90" as="geometry" />
        </mxCell>
        <mxCell id="44vKcgO6JZs-gFAmP7-q-22" value="" style="endArrow=classic;html=1;rounded=0;entryX=0;entryY=0.25;entryDx=0;entryDy=0;exitX=1;exitY=0.25;exitDx=0;exitDy=0;" parent="1" source="44vKcgO6JZs-gFAmP7-q-21" edge="1">
          <mxGeometry width="50" height="50" relative="1" as="geometry">
            <mxPoint x="160" y="925" as="sourcePoint" />
            <mxPoint x="380" y="925" as="targetPoint" />
            <Array as="points">
              <mxPoint x="200" y="1083" />
              <mxPoint x="200" y="925" />
            </Array>
          </mxGeometry>
        </mxCell>
        <mxCell id="44vKcgO6JZs-gFAmP7-q-24" value="" style="rounded=1;whiteSpace=wrap;html=1;" parent="1" vertex="1">
          <mxGeometry x="380" y="870" width="120" height="100" as="geometry" />
        </mxCell>
        <mxCell id="44vKcgO6JZs-gFAmP7-q-25" value="" style="endArrow=none;html=1;rounded=0;entryX=1;entryY=0.4;entryDx=0;entryDy=0;entryPerimeter=0;" parent="1" target="44vKcgO6JZs-gFAmP7-q-24" edge="1">
          <mxGeometry width="50" height="50" relative="1" as="geometry">
            <mxPoint x="380" y="910" as="sourcePoint" />
            <mxPoint x="410" y="780" as="targetPoint" />
          </mxGeometry>
        </mxCell>
        <mxCell id="44vKcgO6JZs-gFAmP7-q-26" value="1" style="text;html=1;align=center;verticalAlign=middle;resizable=0;points=[];autosize=1;strokeColor=none;fillColor=none;" parent="1" vertex="1">
          <mxGeometry x="420" y="880" width="30" height="30" as="geometry" />
        </mxCell>
        <mxCell id="44vKcgO6JZs-gFAmP7-q-27" value="录入" style="text;html=1;align=center;verticalAlign=middle;resizable=0;points=[];autosize=1;strokeColor=none;fillColor=none;" parent="1" vertex="1">
          <mxGeometry x="415" y="920" width="50" height="30" as="geometry" />
        </mxCell>
        <mxCell id="44vKcgO6JZs-gFAmP7-q-30" value="" style="shape=partialRectangle;whiteSpace=wrap;html=1;bottom=1;right=1;left=1;top=0;fillColor=none;routingCenterX=-0.5;rotation=90;" parent="1" vertex="1">
          <mxGeometry x="425" y="990" width="45" height="120" as="geometry" />
        </mxCell>
        <mxCell id="44vKcgO6JZs-gFAmP7-q-31" value="D1" style="text;html=1;align=center;verticalAlign=middle;resizable=0;points=[];autosize=1;strokeColor=none;fillColor=none;" parent="1" vertex="1">
          <mxGeometry x="380" y="1035" width="40" height="30" as="geometry" />
        </mxCell>
        <mxCell id="44vKcgO6JZs-gFAmP7-q-32" value="" style="endArrow=none;html=1;rounded=0;exitX=0.033;exitY=0.663;exitDx=0;exitDy=0;exitPerimeter=0;entryX=1.011;entryY=0.654;entryDx=0;entryDy=0;entryPerimeter=0;" parent="1" source="44vKcgO6JZs-gFAmP7-q-30" target="44vKcgO6JZs-gFAmP7-q-30" edge="1">
          <mxGeometry width="50" height="50" relative="1" as="geometry">
            <mxPoint x="710" y="1000" as="sourcePoint" />
            <mxPoint x="430" y="1070" as="targetPoint" />
          </mxGeometry>
        </mxCell>
        <mxCell id="44vKcgO6JZs-gFAmP7-q-34" value="货物信息" style="text;html=1;align=center;verticalAlign=middle;resizable=0;points=[];autosize=1;strokeColor=none;fillColor=none;" parent="1" vertex="1">
          <mxGeometry x="430" y="1035" width="70" height="30" as="geometry" />
        </mxCell>
        <mxCell id="44vKcgO6JZs-gFAmP7-q-38" value="" style="endArrow=classic;html=1;rounded=0;entryX=0;entryY=0.25;entryDx=0;entryDy=0;" parent="1" target="44vKcgO6JZs-gFAmP7-q-42" edge="1">
          <mxGeometry width="50" height="50" relative="1" as="geometry">
            <mxPoint x="500" y="920" as="sourcePoint" />
            <mxPoint x="750" y="920" as="targetPoint" />
            <Array as="points">
              <mxPoint x="580" y="920" />
              <mxPoint x="580" y="1080" />
            </Array>
          </mxGeometry>
        </mxCell>
        <mxCell id="44vKcgO6JZs-gFAmP7-q-40" value="货物信息" style="text;html=1;align=center;verticalAlign=middle;resizable=0;points=[];autosize=1;strokeColor=none;fillColor=none;" parent="1" vertex="1">
          <mxGeometry x="571" y="990" width="70" height="30" as="geometry" />
        </mxCell>
        <mxCell id="44vKcgO6JZs-gFAmP7-q-41" value="&lt;font style=&quot;font-size: 20px;&quot;&gt;用户&lt;/font&gt;" style="rounded=0;whiteSpace=wrap;html=1;" parent="1" vertex="1">
          <mxGeometry x="780" y="595" width="150" height="90" as="geometry" />
        </mxCell>
        <mxCell id="44vKcgO6JZs-gFAmP7-q-42" value="&lt;font style=&quot;font-size: 20px;&quot;&gt;用户&lt;/font&gt;" style="rounded=0;whiteSpace=wrap;html=1;" parent="1" vertex="1">
          <mxGeometry x="840" y="1060" width="150" height="90" as="geometry" />
        </mxCell>
        <mxCell id="44vKcgO6JZs-gFAmP7-q-45" value="" style="endArrow=classic;html=1;rounded=0;exitX=0.086;exitY=1.067;exitDx=0;exitDy=0;exitPerimeter=0;" parent="1" edge="1">
          <mxGeometry width="50" height="50" relative="1" as="geometry">
            <mxPoint x="146.01999999999998" y="1137.0100000000002" as="sourcePoint" />
            <mxPoint x="380" y="1250" as="targetPoint" />
            <Array as="points">
              <mxPoint x="200" y="1137" />
              <mxPoint x="200" y="1250" />
            </Array>
          </mxGeometry>
        </mxCell>
        <mxCell id="44vKcgO6JZs-gFAmP7-q-46" value="" style="rounded=1;whiteSpace=wrap;html=1;" parent="1" vertex="1">
          <mxGeometry x="380" y="1190" width="120" height="100" as="geometry" />
        </mxCell>
        <mxCell id="44vKcgO6JZs-gFAmP7-q-47" value="" style="endArrow=none;html=1;rounded=0;entryX=1;entryY=0.4;entryDx=0;entryDy=0;entryPerimeter=0;" parent="1" target="44vKcgO6JZs-gFAmP7-q-46" edge="1">
          <mxGeometry width="50" height="50" relative="1" as="geometry">
            <mxPoint x="380" y="1230" as="sourcePoint" />
            <mxPoint x="410" y="1100" as="targetPoint" />
          </mxGeometry>
        </mxCell>
        <mxCell id="44vKcgO6JZs-gFAmP7-q-48" value="2" style="text;html=1;align=center;verticalAlign=middle;resizable=0;points=[];autosize=1;strokeColor=none;fillColor=none;" parent="1" vertex="1">
          <mxGeometry x="420" y="1200" width="30" height="30" as="geometry" />
        </mxCell>
        <mxCell id="44vKcgO6JZs-gFAmP7-q-49" value="发布" style="text;html=1;align=center;verticalAlign=middle;resizable=0;points=[];autosize=1;strokeColor=none;fillColor=none;" parent="1" vertex="1">
          <mxGeometry x="415" y="1240" width="50" height="30" as="geometry" />
        </mxCell>
        <mxCell id="44vKcgO6JZs-gFAmP7-q-51" value="" style="shape=partialRectangle;whiteSpace=wrap;html=1;bottom=1;right=1;left=1;top=0;fillColor=none;routingCenterX=-0.5;rotation=90;" parent="1" vertex="1">
          <mxGeometry x="425" y="1310" width="45" height="120" as="geometry" />
        </mxCell>
        <mxCell id="44vKcgO6JZs-gFAmP7-q-52" value="D2" style="text;html=1;align=center;verticalAlign=middle;resizable=0;points=[];autosize=1;strokeColor=none;fillColor=none;" parent="1" vertex="1">
          <mxGeometry x="380" y="1355" width="40" height="30" as="geometry" />
        </mxCell>
        <mxCell id="44vKcgO6JZs-gFAmP7-q-53" value="" style="endArrow=none;html=1;rounded=0;exitX=0.033;exitY=0.663;exitDx=0;exitDy=0;exitPerimeter=0;entryX=1.011;entryY=0.654;entryDx=0;entryDy=0;entryPerimeter=0;" parent="1" source="44vKcgO6JZs-gFAmP7-q-51" target="44vKcgO6JZs-gFAmP7-q-51" edge="1">
          <mxGeometry width="50" height="50" relative="1" as="geometry">
            <mxPoint x="710" y="1320" as="sourcePoint" />
            <mxPoint x="430" y="1390" as="targetPoint" />
          </mxGeometry>
        </mxCell>
        <mxCell id="44vKcgO6JZs-gFAmP7-q-54" value="物流信息" style="text;html=1;align=center;verticalAlign=middle;resizable=0;points=[];autosize=1;strokeColor=none;fillColor=none;" parent="1" vertex="1">
          <mxGeometry x="430" y="1355" width="70" height="30" as="geometry" />
        </mxCell>
        <mxCell id="44vKcgO6JZs-gFAmP7-q-56" value="" style="endArrow=classic;html=1;rounded=0;entryX=0.007;entryY=0.589;entryDx=0;entryDy=0;entryPerimeter=0;" parent="1" target="44vKcgO6JZs-gFAmP7-q-42" edge="1">
          <mxGeometry width="50" height="50" relative="1" as="geometry">
            <mxPoint x="500" y="1250" as="sourcePoint" />
            <mxPoint x="410" y="1020" as="targetPoint" />
            <Array as="points">
              <mxPoint x="580" y="1250" />
              <mxPoint x="580" y="1113" />
            </Array>
          </mxGeometry>
        </mxCell>
        <mxCell id="44vKcgO6JZs-gFAmP7-q-57" value="物流信息" style="text;html=1;align=center;verticalAlign=middle;resizable=0;points=[];autosize=1;strokeColor=none;fillColor=none;" parent="1" vertex="1">
          <mxGeometry x="580" y="1180" width="70" height="30" as="geometry" />
        </mxCell>
        <mxCell id="44vKcgO6JZs-gFAmP7-q-60" value="&lt;font style=&quot;font-size: 30px;&quot;&gt;1层数据流图：&lt;/font&gt;" style="text;html=1;align=center;verticalAlign=middle;resizable=0;points=[];autosize=1;strokeColor=none;fillColor=none;" parent="1" vertex="1">
          <mxGeometry x="-55" y="1540" width="220" height="50" as="geometry" />
        </mxCell>
        <mxCell id="44vKcgO6JZs-gFAmP7-q-63" value="&lt;font style=&quot;font-size: 20px;&quot;&gt;用户&lt;/font&gt;" style="rounded=0;whiteSpace=wrap;html=1;" parent="1" vertex="1">
          <mxGeometry x="-10" y="1840" width="150" height="90" as="geometry" />
        </mxCell>
        <mxCell id="44vKcgO6JZs-gFAmP7-q-64" value="" style="endArrow=classic;html=1;rounded=0;entryX=0;entryY=0.25;entryDx=0;entryDy=0;exitX=1;exitY=0.25;exitDx=0;exitDy=0;" parent="1" source="44vKcgO6JZs-gFAmP7-q-63" edge="1">
          <mxGeometry width="50" height="50" relative="1" as="geometry">
            <mxPoint x="155" y="1705" as="sourcePoint" />
            <mxPoint x="375" y="1705" as="targetPoint" />
            <Array as="points">
              <mxPoint x="195" y="1863" />
              <mxPoint x="195" y="1705" />
            </Array>
          </mxGeometry>
        </mxCell>
        <mxCell id="44vKcgO6JZs-gFAmP7-q-96" value="" style="edgeStyle=orthogonalEdgeStyle;rounded=0;orthogonalLoop=1;jettySize=auto;html=1;" parent="1" source="44vKcgO6JZs-gFAmP7-q-66" edge="1">
          <mxGeometry relative="1" as="geometry">
            <mxPoint x="575" y="1700" as="targetPoint" />
          </mxGeometry>
        </mxCell>
        <mxCell id="44vKcgO6JZs-gFAmP7-q-66" value="" style="rounded=1;whiteSpace=wrap;html=1;" parent="1" vertex="1">
          <mxGeometry x="375" y="1650" width="120" height="100" as="geometry" />
        </mxCell>
        <mxCell id="44vKcgO6JZs-gFAmP7-q-67" value="" style="endArrow=none;html=1;rounded=0;entryX=1;entryY=0.4;entryDx=0;entryDy=0;entryPerimeter=0;" parent="1" target="44vKcgO6JZs-gFAmP7-q-66" edge="1">
          <mxGeometry width="50" height="50" relative="1" as="geometry">
            <mxPoint x="375" y="1690" as="sourcePoint" />
            <mxPoint x="405" y="1560" as="targetPoint" />
          </mxGeometry>
        </mxCell>
        <mxCell id="44vKcgO6JZs-gFAmP7-q-68" value="1.1" style="text;html=1;align=center;verticalAlign=middle;resizable=0;points=[];autosize=1;strokeColor=none;fillColor=none;" parent="1" vertex="1">
          <mxGeometry x="410" y="1660" width="40" height="30" as="geometry" />
        </mxCell>
        <mxCell id="44vKcgO6JZs-gFAmP7-q-69" value="录入" style="text;html=1;align=center;verticalAlign=middle;resizable=0;points=[];autosize=1;strokeColor=none;fillColor=none;" parent="1" vertex="1">
          <mxGeometry x="410" y="1700" width="50" height="30" as="geometry" />
        </mxCell>
        <mxCell id="44vKcgO6JZs-gFAmP7-q-70" value="" style="shape=partialRectangle;whiteSpace=wrap;html=1;bottom=1;right=1;left=1;top=0;fillColor=none;routingCenterX=-0.5;rotation=90;" parent="1" vertex="1">
          <mxGeometry x="520" y="1670" width="45" height="320" as="geometry" />
        </mxCell>
        <mxCell id="44vKcgO6JZs-gFAmP7-q-71" value="D1" style="text;html=1;align=center;verticalAlign=middle;resizable=0;points=[];autosize=1;strokeColor=none;fillColor=none;" parent="1" vertex="1">
          <mxGeometry x="375" y="1815" width="40" height="30" as="geometry" />
        </mxCell>
        <mxCell id="44vKcgO6JZs-gFAmP7-q-72" value="" style="endArrow=none;html=1;rounded=0;exitX=0.033;exitY=0.663;exitDx=0;exitDy=0;exitPerimeter=0;" parent="1" source="44vKcgO6JZs-gFAmP7-q-70" edge="1">
          <mxGeometry width="50" height="50" relative="1" as="geometry">
            <mxPoint x="705" y="1780" as="sourcePoint" />
            <mxPoint x="490" y="1850" as="targetPoint" />
          </mxGeometry>
        </mxCell>
        <mxCell id="44vKcgO6JZs-gFAmP7-q-73" value="货物信息" style="text;html=1;align=center;verticalAlign=middle;resizable=0;points=[];autosize=1;strokeColor=none;fillColor=none;" parent="1" vertex="1">
          <mxGeometry x="425" y="1815" width="70" height="30" as="geometry" />
        </mxCell>
        <mxCell id="44vKcgO6JZs-gFAmP7-q-75" value="" style="endArrow=classic;html=1;rounded=0;entryX=0;entryY=0.25;entryDx=0;entryDy=0;" parent="1" target="44vKcgO6JZs-gFAmP7-q-77" edge="1">
          <mxGeometry width="50" height="50" relative="1" as="geometry">
            <mxPoint x="700" y="1710" as="sourcePoint" />
            <mxPoint x="950" y="1710" as="targetPoint" />
            <Array as="points">
              <mxPoint x="780" y="1710" />
              <mxPoint x="780" y="1870" />
            </Array>
          </mxGeometry>
        </mxCell>
        <mxCell id="44vKcgO6JZs-gFAmP7-q-76" value="货物信息" style="text;html=1;align=center;verticalAlign=middle;resizable=0;points=[];autosize=1;strokeColor=none;fillColor=none;" parent="1" vertex="1">
          <mxGeometry x="771" y="1780" width="70" height="30" as="geometry" />
        </mxCell>
        <mxCell id="44vKcgO6JZs-gFAmP7-q-77" value="&lt;font style=&quot;font-size: 20px;&quot;&gt;用户&lt;/font&gt;" style="rounded=0;whiteSpace=wrap;html=1;" parent="1" vertex="1">
          <mxGeometry x="1040" y="1850" width="150" height="90" as="geometry" />
        </mxCell>
        <mxCell id="44vKcgO6JZs-gFAmP7-q-78" value="" style="endArrow=classic;html=1;rounded=0;exitX=0.086;exitY=1.067;exitDx=0;exitDy=0;exitPerimeter=0;" parent="1" edge="1">
          <mxGeometry width="50" height="50" relative="1" as="geometry">
            <mxPoint x="141.01999999999998" y="1917.0100000000002" as="sourcePoint" />
            <mxPoint x="375" y="2030" as="targetPoint" />
            <Array as="points">
              <mxPoint x="195" y="1917" />
              <mxPoint x="195" y="2030" />
            </Array>
          </mxGeometry>
        </mxCell>
        <mxCell id="44vKcgO6JZs-gFAmP7-q-79" value="" style="rounded=1;whiteSpace=wrap;html=1;" parent="1" vertex="1">
          <mxGeometry x="375" y="1970" width="120" height="100" as="geometry" />
        </mxCell>
        <mxCell id="44vKcgO6JZs-gFAmP7-q-80" value="" style="endArrow=none;html=1;rounded=0;entryX=1;entryY=0.4;entryDx=0;entryDy=0;entryPerimeter=0;" parent="1" target="44vKcgO6JZs-gFAmP7-q-79" edge="1">
          <mxGeometry width="50" height="50" relative="1" as="geometry">
            <mxPoint x="375" y="2010" as="sourcePoint" />
            <mxPoint x="405" y="1880" as="targetPoint" />
          </mxGeometry>
        </mxCell>
        <mxCell id="44vKcgO6JZs-gFAmP7-q-81" value="2.1" style="text;html=1;align=center;verticalAlign=middle;resizable=0;points=[];autosize=1;strokeColor=none;fillColor=none;" parent="1" vertex="1">
          <mxGeometry x="410" y="1980" width="40" height="30" as="geometry" />
        </mxCell>
        <mxCell id="44vKcgO6JZs-gFAmP7-q-82" value="发布" style="text;html=1;align=center;verticalAlign=middle;resizable=0;points=[];autosize=1;strokeColor=none;fillColor=none;" parent="1" vertex="1">
          <mxGeometry x="410" y="2020" width="50" height="30" as="geometry" />
        </mxCell>
        <mxCell id="44vKcgO6JZs-gFAmP7-q-83" value="" style="shape=partialRectangle;whiteSpace=wrap;html=1;bottom=1;right=1;left=1;top=0;fillColor=none;routingCenterX=-0.5;rotation=90;" parent="1" vertex="1">
          <mxGeometry x="545" y="1965" width="45" height="370" as="geometry" />
        </mxCell>
        <mxCell id="44vKcgO6JZs-gFAmP7-q-84" value="D2" style="text;html=1;align=center;verticalAlign=middle;resizable=0;points=[];autosize=1;strokeColor=none;fillColor=none;" parent="1" vertex="1">
          <mxGeometry x="375" y="2135" width="40" height="30" as="geometry" />
        </mxCell>
        <mxCell id="44vKcgO6JZs-gFAmP7-q-85" value="" style="endArrow=none;html=1;rounded=0;exitX=0.033;exitY=0.663;exitDx=0;exitDy=0;exitPerimeter=0;" parent="1" source="44vKcgO6JZs-gFAmP7-q-83" edge="1">
          <mxGeometry width="50" height="50" relative="1" as="geometry">
            <mxPoint x="705" y="2100" as="sourcePoint" />
            <mxPoint x="507" y="2170" as="targetPoint" />
          </mxGeometry>
        </mxCell>
        <mxCell id="44vKcgO6JZs-gFAmP7-q-86" value="物流信息" style="text;html=1;align=center;verticalAlign=middle;resizable=0;points=[];autosize=1;strokeColor=none;fillColor=none;" parent="1" vertex="1">
          <mxGeometry x="425" y="2135" width="70" height="30" as="geometry" />
        </mxCell>
        <mxCell id="44vKcgO6JZs-gFAmP7-q-88" value="" style="endArrow=classic;html=1;rounded=0;entryX=0.007;entryY=0.589;entryDx=0;entryDy=0;entryPerimeter=0;" parent="1" target="44vKcgO6JZs-gFAmP7-q-77" edge="1">
          <mxGeometry width="50" height="50" relative="1" as="geometry">
            <mxPoint x="700" y="2040" as="sourcePoint" />
            <mxPoint x="610" y="1810" as="targetPoint" />
            <Array as="points">
              <mxPoint x="780" y="2040" />
              <mxPoint x="780" y="1903" />
            </Array>
          </mxGeometry>
        </mxCell>
        <mxCell id="44vKcgO6JZs-gFAmP7-q-89" value="物流信息" style="text;html=1;align=center;verticalAlign=middle;resizable=0;points=[];autosize=1;strokeColor=none;fillColor=none;" parent="1" vertex="1">
          <mxGeometry x="780" y="1970" width="70" height="30" as="geometry" />
        </mxCell>
        <mxCell id="44vKcgO6JZs-gFAmP7-q-91" value="管理货物信息" style="text;html=1;align=center;verticalAlign=middle;resizable=0;points=[];autosize=1;strokeColor=none;fillColor=none;" parent="1" vertex="1">
          <mxGeometry x="225" y="890" width="100" height="30" as="geometry" />
        </mxCell>
        <mxCell id="44vKcgO6JZs-gFAmP7-q-92" value="发布并管理物流" style="text;html=1;align=center;verticalAlign=middle;resizable=0;points=[];autosize=1;strokeColor=none;fillColor=none;" parent="1" vertex="1">
          <mxGeometry x="215" y="1220" width="110" height="30" as="geometry" />
        </mxCell>
        <mxCell id="44vKcgO6JZs-gFAmP7-q-93" value="管理货物信息" style="text;html=1;align=center;verticalAlign=middle;resizable=0;points=[];autosize=1;strokeColor=none;fillColor=none;" parent="1" vertex="1">
          <mxGeometry x="205" y="1670" width="100" height="30" as="geometry" />
        </mxCell>
        <mxCell id="44vKcgO6JZs-gFAmP7-q-94" value="发布并管理物流" style="text;html=1;align=center;verticalAlign=middle;resizable=0;points=[];autosize=1;strokeColor=none;fillColor=none;" parent="1" vertex="1">
          <mxGeometry x="205" y="1990" width="110" height="30" as="geometry" />
        </mxCell>
        <mxCell id="44vKcgO6JZs-gFAmP7-q-98" value="" style="rounded=1;whiteSpace=wrap;html=1;" parent="1" vertex="1">
          <mxGeometry x="580" y="1650" width="120" height="100" as="geometry" />
        </mxCell>
        <mxCell id="44vKcgO6JZs-gFAmP7-q-99" value="" style="endArrow=none;html=1;rounded=0;entryX=1;entryY=0.4;entryDx=0;entryDy=0;entryPerimeter=0;" parent="1" target="44vKcgO6JZs-gFAmP7-q-98" edge="1">
          <mxGeometry width="50" height="50" relative="1" as="geometry">
            <mxPoint x="580" y="1690" as="sourcePoint" />
            <mxPoint x="610" y="1560" as="targetPoint" />
          </mxGeometry>
        </mxCell>
        <mxCell id="44vKcgO6JZs-gFAmP7-q-100" value="1.2" style="text;html=1;align=center;verticalAlign=middle;resizable=0;points=[];autosize=1;strokeColor=none;fillColor=none;" parent="1" vertex="1">
          <mxGeometry x="615" y="1660" width="40" height="30" as="geometry" />
        </mxCell>
        <mxCell id="44vKcgO6JZs-gFAmP7-q-101" value="修改/删除" style="text;html=1;align=center;verticalAlign=middle;resizable=0;points=[];autosize=1;strokeColor=none;fillColor=none;" parent="1" vertex="1">
          <mxGeometry x="605" y="1700" width="70" height="30" as="geometry" />
        </mxCell>
        <mxCell id="44vKcgO6JZs-gFAmP7-q-102" value="" style="endArrow=classic;startArrow=classic;html=1;rounded=0;exitX=-0.011;exitY=0.192;exitDx=0;exitDy=0;entryX=0.5;entryY=1;entryDx=0;entryDy=0;exitPerimeter=0;" parent="1" source="44vKcgO6JZs-gFAmP7-q-70" target="44vKcgO6JZs-gFAmP7-q-98" edge="1">
          <mxGeometry width="50" height="50" relative="1" as="geometry">
            <mxPoint x="445" y="1816" as="sourcePoint" />
            <mxPoint x="445" y="1760" as="targetPoint" />
          </mxGeometry>
        </mxCell>
        <mxCell id="44vKcgO6JZs-gFAmP7-q-103" value="" style="rounded=1;whiteSpace=wrap;html=1;" parent="1" vertex="1">
          <mxGeometry x="580" y="1970" width="120" height="100" as="geometry" />
        </mxCell>
        <mxCell id="44vKcgO6JZs-gFAmP7-q-104" value="" style="endArrow=none;html=1;rounded=0;entryX=1;entryY=0.4;entryDx=0;entryDy=0;entryPerimeter=0;" parent="1" target="44vKcgO6JZs-gFAmP7-q-103" edge="1">
          <mxGeometry width="50" height="50" relative="1" as="geometry">
            <mxPoint x="580" y="2010" as="sourcePoint" />
            <mxPoint x="610" y="1880" as="targetPoint" />
          </mxGeometry>
        </mxCell>
        <mxCell id="44vKcgO6JZs-gFAmP7-q-105" value="2.2" style="text;html=1;align=center;verticalAlign=middle;resizable=0;points=[];autosize=1;strokeColor=none;fillColor=none;" parent="1" vertex="1">
          <mxGeometry x="615" y="1980" width="40" height="30" as="geometry" />
        </mxCell>
        <mxCell id="44vKcgO6JZs-gFAmP7-q-106" value="修改/删除" style="text;html=1;align=center;verticalAlign=middle;resizable=0;points=[];autosize=1;strokeColor=none;fillColor=none;" parent="1" vertex="1">
          <mxGeometry x="605" y="2020" width="70" height="30" as="geometry" />
        </mxCell>
        <mxCell id="44vKcgO6JZs-gFAmP7-q-109" value="" style="endArrow=classic;html=1;rounded=0;exitX=1;exitY=0.64;exitDx=0;exitDy=0;exitPerimeter=0;entryX=-0.008;entryY=0.64;entryDx=0;entryDy=0;entryPerimeter=0;" parent="1" source="44vKcgO6JZs-gFAmP7-q-79" target="44vKcgO6JZs-gFAmP7-q-103" edge="1">
          <mxGeometry width="50" height="50" relative="1" as="geometry">
            <mxPoint x="360" y="1770" as="sourcePoint" />
            <mxPoint x="410" y="1720" as="targetPoint" />
          </mxGeometry>
        </mxCell>
        <mxCell id="44vKcgO6JZs-gFAmP7-q-111" value="" style="endArrow=classic;startArrow=classic;html=1;rounded=0;exitX=0.011;exitY=0.307;exitDx=0;exitDy=0;entryX=0.5;entryY=1;entryDx=0;entryDy=0;exitPerimeter=0;" parent="1" source="44vKcgO6JZs-gFAmP7-q-83" target="44vKcgO6JZs-gFAmP7-q-103" edge="1">
          <mxGeometry width="50" height="50" relative="1" as="geometry">
            <mxPoint x="460" y="1770" as="sourcePoint" />
            <mxPoint x="510" y="1720" as="targetPoint" />
          </mxGeometry>
        </mxCell>
        <mxCell id="44vKcgO6JZs-gFAmP7-q-113" value="" style="endArrow=classic;html=1;rounded=0;exitX=0.5;exitY=1;exitDx=0;exitDy=0;entryX=-0.033;entryY=0.864;entryDx=0;entryDy=0;entryPerimeter=0;" parent="1" source="44vKcgO6JZs-gFAmP7-q-79" target="44vKcgO6JZs-gFAmP7-q-83" edge="1">
          <mxGeometry width="50" height="50" relative="1" as="geometry">
            <mxPoint x="460" y="1970" as="sourcePoint" />
            <mxPoint x="510" y="1920" as="targetPoint" />
          </mxGeometry>
        </mxCell>
        <mxCell id="44vKcgO6JZs-gFAmP7-q-114" value="" style="endArrow=classic;html=1;rounded=0;exitX=0.5;exitY=1;exitDx=0;exitDy=0;entryX=-0.033;entryY=0.836;entryDx=0;entryDy=0;entryPerimeter=0;" parent="1" source="44vKcgO6JZs-gFAmP7-q-66" target="44vKcgO6JZs-gFAmP7-q-70" edge="1">
          <mxGeometry width="50" height="50" relative="1" as="geometry">
            <mxPoint x="460" y="1970" as="sourcePoint" />
            <mxPoint x="510" y="1920" as="targetPoint" />
          </mxGeometry>
        </mxCell>
        <mxCell id="44vKcgO6JZs-gFAmP7-q-115" value="" style="endArrow=classic;html=1;rounded=0;exitX=0.5;exitY=1;exitDx=0;exitDy=0;entryX=-0.078;entryY=0.563;entryDx=0;entryDy=0;entryPerimeter=0;" parent="1" source="44vKcgO6JZs-gFAmP7-q-46" target="44vKcgO6JZs-gFAmP7-q-51" edge="1">
          <mxGeometry width="50" height="50" relative="1" as="geometry">
            <mxPoint x="460" y="1370" as="sourcePoint" />
            <mxPoint x="510" y="1320" as="targetPoint" />
          </mxGeometry>
        </mxCell>
        <mxCell id="44vKcgO6JZs-gFAmP7-q-116" value="" style="endArrow=classic;html=1;rounded=0;exitX=0.5;exitY=1;exitDx=0;exitDy=0;entryX=-0.033;entryY=0.563;entryDx=0;entryDy=0;entryPerimeter=0;" parent="1" source="44vKcgO6JZs-gFAmP7-q-24" target="44vKcgO6JZs-gFAmP7-q-30" edge="1">
          <mxGeometry width="50" height="50" relative="1" as="geometry">
            <mxPoint x="460" y="1370" as="sourcePoint" />
            <mxPoint x="440" y="1020" as="targetPoint" />
          </mxGeometry>
        </mxCell>
        <mxCell id="44vKcgO6JZs-gFAmP7-q-117" value="&lt;font style=&quot;font-size: 50px;&quot;&gt;数据流图&lt;/font&gt;" style="text;html=1;align=center;verticalAlign=middle;resizable=0;points=[];autosize=1;strokeColor=none;fillColor=none;" parent="1" vertex="1">
          <mxGeometry x="-260" y="258" width="220" height="70" as="geometry" />
        </mxCell>
        <mxCell id="44vKcgO6JZs-gFAmP7-q-118" value="&lt;font style=&quot;font-size: 30px;&quot;&gt;登录流程图&lt;/font&gt;" style="text;html=1;align=center;verticalAlign=middle;resizable=0;points=[];autosize=1;strokeColor=none;fillColor=none;" parent="1" vertex="1">
          <mxGeometry x="-300" y="2610" width="170" height="50" as="geometry" />
        </mxCell>
        <mxCell id="44vKcgO6JZs-gFAmP7-q-123" value="" style="edgeStyle=orthogonalEdgeStyle;rounded=0;orthogonalLoop=1;jettySize=auto;html=1;" parent="1" source="44vKcgO6JZs-gFAmP7-q-119" target="44vKcgO6JZs-gFAmP7-q-122" edge="1">
          <mxGeometry relative="1" as="geometry" />
        </mxCell>
        <mxCell id="44vKcgO6JZs-gFAmP7-q-119" value="&lt;font style=&quot;font-size: 20px;&quot;&gt;开始&lt;/font&gt;" style="rounded=1;whiteSpace=wrap;html=1;" parent="1" vertex="1">
          <mxGeometry x="440" y="2660" width="120" height="60" as="geometry" />
        </mxCell>
        <mxCell id="44vKcgO6JZs-gFAmP7-q-125" value="" style="edgeStyle=orthogonalEdgeStyle;rounded=0;orthogonalLoop=1;jettySize=auto;html=1;" parent="1" source="44vKcgO6JZs-gFAmP7-q-122" target="44vKcgO6JZs-gFAmP7-q-124" edge="1">
          <mxGeometry relative="1" as="geometry" />
        </mxCell>
        <mxCell id="44vKcgO6JZs-gFAmP7-q-122" value="&lt;font style=&quot;font-size: 20px;&quot;&gt;输入用户名密码&lt;/font&gt;" style="rounded=0;whiteSpace=wrap;html=1;fillColor=default;" parent="1" vertex="1">
          <mxGeometry x="385" y="2810" width="230" height="60" as="geometry" />
        </mxCell>
        <mxCell id="44vKcgO6JZs-gFAmP7-q-127" value="" style="edgeStyle=orthogonalEdgeStyle;rounded=0;orthogonalLoop=1;jettySize=auto;html=1;" parent="1" source="44vKcgO6JZs-gFAmP7-q-124" target="44vKcgO6JZs-gFAmP7-q-126" edge="1">
          <mxGeometry relative="1" as="geometry" />
        </mxCell>
        <mxCell id="44vKcgO6JZs-gFAmP7-q-130" value="" style="edgeStyle=orthogonalEdgeStyle;rounded=0;orthogonalLoop=1;jettySize=auto;html=1;" parent="1" source="44vKcgO6JZs-gFAmP7-q-124" target="44vKcgO6JZs-gFAmP7-q-129" edge="1">
          <mxGeometry relative="1" as="geometry">
            <Array as="points">
              <mxPoint x="750" y="2980" />
              <mxPoint x="750" y="2690" />
            </Array>
          </mxGeometry>
        </mxCell>
        <mxCell id="44vKcgO6JZs-gFAmP7-q-124" value="&lt;font style=&quot;font-size: 20px;&quot;&gt;账号密码是否正确&lt;/font&gt;" style="rhombus;whiteSpace=wrap;html=1;rounded=0;" parent="1" vertex="1">
          <mxGeometry x="390" y="2940" width="220" height="80" as="geometry" />
        </mxCell>
        <mxCell id="44vKcgO6JZs-gFAmP7-q-133" value="" style="edgeStyle=orthogonalEdgeStyle;rounded=0;orthogonalLoop=1;jettySize=auto;html=1;" parent="1" source="44vKcgO6JZs-gFAmP7-q-126" target="44vKcgO6JZs-gFAmP7-q-132" edge="1">
          <mxGeometry relative="1" as="geometry" />
        </mxCell>
        <mxCell id="44vKcgO6JZs-gFAmP7-q-126" value="&lt;font style=&quot;font-size: 20px;&quot;&gt;进入系统界面&lt;/font&gt;" style="whiteSpace=wrap;html=1;rounded=0;" parent="1" vertex="1">
          <mxGeometry x="425" y="3130" width="150" height="60" as="geometry" />
        </mxCell>
        <mxCell id="44vKcgO6JZs-gFAmP7-q-128" value="&lt;font style=&quot;font-size: 20px;&quot;&gt;是&lt;/font&gt;" style="text;html=1;align=center;verticalAlign=middle;resizable=0;points=[];autosize=1;strokeColor=none;fillColor=none;" parent="1" vertex="1">
          <mxGeometry x="505" y="3043" width="40" height="40" as="geometry" />
        </mxCell>
        <mxCell id="44vKcgO6JZs-gFAmP7-q-129" value="" style="shape=waypoint;sketch=0;size=6;pointerEvents=1;points=[];fillColor=default;resizable=0;rotatable=0;perimeter=centerPerimeter;snapToPoint=1;rounded=0;" parent="1" vertex="1">
          <mxGeometry x="551" y="2680" width="20" height="20" as="geometry" />
        </mxCell>
        <mxCell id="44vKcgO6JZs-gFAmP7-q-131" value="&lt;font style=&quot;font-size: 20px;&quot;&gt;否&lt;/font&gt;" style="text;html=1;align=center;verticalAlign=middle;resizable=0;points=[];autosize=1;strokeColor=none;fillColor=none;" parent="1" vertex="1">
          <mxGeometry x="650" y="2940" width="40" height="40" as="geometry" />
        </mxCell>
        <mxCell id="44vKcgO6JZs-gFAmP7-q-132" value="&lt;font style=&quot;font-size: 20px;&quot;&gt;结束&lt;/font&gt;" style="whiteSpace=wrap;html=1;rounded=1;" parent="1" vertex="1">
          <mxGeometry x="440" y="3270" width="120" height="60" as="geometry" />
        </mxCell>
        <mxCell id="44vKcgO6JZs-gFAmP7-q-134" value="&lt;font style=&quot;font-size: 30px;&quot;&gt;录入货物流程图&lt;/font&gt;" style="text;html=1;align=center;verticalAlign=middle;resizable=0;points=[];autosize=1;strokeColor=none;fillColor=none;" parent="1" vertex="1">
          <mxGeometry x="-340" y="3480" width="230" height="50" as="geometry" />
        </mxCell>
        <mxCell id="44vKcgO6JZs-gFAmP7-q-135" value="" style="edgeStyle=orthogonalEdgeStyle;rounded=0;orthogonalLoop=1;jettySize=auto;html=1;" parent="1" source="44vKcgO6JZs-gFAmP7-q-136" target="44vKcgO6JZs-gFAmP7-q-138" edge="1">
          <mxGeometry relative="1" as="geometry" />
        </mxCell>
        <mxCell id="44vKcgO6JZs-gFAmP7-q-136" value="&lt;font style=&quot;font-size: 20px;&quot;&gt;开始&lt;/font&gt;" style="rounded=1;whiteSpace=wrap;html=1;" parent="1" vertex="1">
          <mxGeometry x="430" y="3530" width="120" height="60" as="geometry" />
        </mxCell>
        <mxCell id="44vKcgO6JZs-gFAmP7-q-137" value="" style="edgeStyle=orthogonalEdgeStyle;rounded=0;orthogonalLoop=1;jettySize=auto;html=1;" parent="1" target="44vKcgO6JZs-gFAmP7-q-141" edge="1">
          <mxGeometry relative="1" as="geometry">
            <mxPoint x="500" y="3990" as="sourcePoint" />
            <Array as="points">
              <mxPoint x="490" y="3990" />
            </Array>
          </mxGeometry>
        </mxCell>
        <mxCell id="44vKcgO6JZs-gFAmP7-q-149" value="" style="edgeStyle=orthogonalEdgeStyle;rounded=0;orthogonalLoop=1;jettySize=auto;html=1;" parent="1" source="44vKcgO6JZs-gFAmP7-q-138" target="44vKcgO6JZs-gFAmP7-q-148" edge="1">
          <mxGeometry relative="1" as="geometry" />
        </mxCell>
        <mxCell id="44vKcgO6JZs-gFAmP7-q-138" value="&lt;span style=&quot;font-size: 20px;&quot;&gt;点击我的货物&lt;/span&gt;" style="rounded=0;whiteSpace=wrap;html=1;fillColor=default;" parent="1" vertex="1">
          <mxGeometry x="375" y="3680" width="230" height="60" as="geometry" />
        </mxCell>
        <mxCell id="44vKcgO6JZs-gFAmP7-q-139" value="" style="edgeStyle=orthogonalEdgeStyle;rounded=0;orthogonalLoop=1;jettySize=auto;html=1;" parent="1" target="44vKcgO6JZs-gFAmP7-q-143" edge="1">
          <mxGeometry relative="1" as="geometry">
            <mxPoint x="490" y="4430" as="sourcePoint" />
          </mxGeometry>
        </mxCell>
        <mxCell id="44vKcgO6JZs-gFAmP7-q-140" value="" style="edgeStyle=orthogonalEdgeStyle;rounded=0;orthogonalLoop=1;jettySize=auto;html=1;entryX=1;entryY=0.5;entryDx=0;entryDy=0;" parent="1" source="44vKcgO6JZs-gFAmP7-q-141" target="44vKcgO6JZs-gFAmP7-q-150" edge="1">
          <mxGeometry relative="1" as="geometry">
            <Array as="points">
              <mxPoint x="740" y="4220" />
              <mxPoint x="740" y="3990" />
            </Array>
          </mxGeometry>
        </mxCell>
        <mxCell id="44vKcgO6JZs-gFAmP7-q-154" value="" style="edgeStyle=orthogonalEdgeStyle;rounded=0;orthogonalLoop=1;jettySize=auto;html=1;" parent="1" source="44vKcgO6JZs-gFAmP7-q-141" target="44vKcgO6JZs-gFAmP7-q-153" edge="1">
          <mxGeometry relative="1" as="geometry" />
        </mxCell>
        <mxCell id="44vKcgO6JZs-gFAmP7-q-141" value="&lt;font style=&quot;font-size: 20px;&quot;&gt;文件格式是否正确&lt;/font&gt;" style="rhombus;whiteSpace=wrap;html=1;rounded=0;" parent="1" vertex="1">
          <mxGeometry x="380" y="4180" width="220" height="80" as="geometry" />
        </mxCell>
        <mxCell id="44vKcgO6JZs-gFAmP7-q-143" value="&lt;span style=&quot;font-size: 20px;&quot;&gt;结束&lt;/span&gt;" style="whiteSpace=wrap;html=1;rounded=1;" parent="1" vertex="1">
          <mxGeometry x="415" y="4570" width="150" height="60" as="geometry" />
        </mxCell>
        <mxCell id="44vKcgO6JZs-gFAmP7-q-144" value="&lt;font style=&quot;font-size: 20px;&quot;&gt;是&lt;/font&gt;" style="text;html=1;align=center;verticalAlign=middle;resizable=0;points=[];autosize=1;strokeColor=none;fillColor=none;" parent="1" vertex="1">
          <mxGeometry x="501" y="4280" width="40" height="40" as="geometry" />
        </mxCell>
        <mxCell id="44vKcgO6JZs-gFAmP7-q-145" value="" style="shape=waypoint;sketch=0;size=6;pointerEvents=1;points=[];fillColor=default;resizable=0;rotatable=0;perimeter=centerPerimeter;snapToPoint=1;rounded=0;" parent="1" vertex="1">
          <mxGeometry x="541" y="3550" width="20" height="20" as="geometry" />
        </mxCell>
        <mxCell id="44vKcgO6JZs-gFAmP7-q-146" value="&lt;font style=&quot;font-size: 20px;&quot;&gt;否&lt;/font&gt;" style="text;html=1;align=center;verticalAlign=middle;resizable=0;points=[];autosize=1;strokeColor=none;fillColor=none;" parent="1" vertex="1">
          <mxGeometry x="640" y="4180" width="40" height="40" as="geometry" />
        </mxCell>
        <mxCell id="44vKcgO6JZs-gFAmP7-q-151" value="" style="edgeStyle=orthogonalEdgeStyle;rounded=0;orthogonalLoop=1;jettySize=auto;html=1;" parent="1" source="44vKcgO6JZs-gFAmP7-q-148" target="44vKcgO6JZs-gFAmP7-q-150" edge="1">
          <mxGeometry relative="1" as="geometry" />
        </mxCell>
        <mxCell id="44vKcgO6JZs-gFAmP7-q-148" value="&lt;font style=&quot;font-size: 20px;&quot;&gt;点击录入&lt;/font&gt;" style="whiteSpace=wrap;html=1;rounded=0;" parent="1" vertex="1">
          <mxGeometry x="430" y="3820" width="120" height="60" as="geometry" />
        </mxCell>
        <mxCell id="44vKcgO6JZs-gFAmP7-q-150" value="&lt;font style=&quot;font-size: 20px;&quot;&gt;选择excel 文件&lt;/font&gt;" style="whiteSpace=wrap;html=1;rounded=0;" parent="1" vertex="1">
          <mxGeometry x="420" y="3960" width="140" height="60" as="geometry" />
        </mxCell>
        <mxCell id="44vKcgO6JZs-gFAmP7-q-158" value="" style="edgeStyle=orthogonalEdgeStyle;rounded=0;orthogonalLoop=1;jettySize=auto;html=1;" parent="1" source="44vKcgO6JZs-gFAmP7-q-153" target="44vKcgO6JZs-gFAmP7-q-157" edge="1">
          <mxGeometry relative="1" as="geometry" />
        </mxCell>
        <mxCell id="44vKcgO6JZs-gFAmP7-q-153" value="&lt;font style=&quot;font-size: 20px;&quot;&gt;文件内部内容&lt;br&gt;格式是否正确&lt;/font&gt;" style="rhombus;whiteSpace=wrap;html=1;rounded=0;" parent="1" vertex="1">
          <mxGeometry x="380" y="4340" width="220" height="80" as="geometry" />
        </mxCell>
        <mxCell id="44vKcgO6JZs-gFAmP7-q-155" value="&lt;font style=&quot;font-size: 20px;&quot;&gt;是&lt;/font&gt;" style="text;html=1;align=center;verticalAlign=middle;resizable=0;points=[];autosize=1;strokeColor=none;fillColor=none;" parent="1" vertex="1">
          <mxGeometry x="500" y="4470" width="40" height="40" as="geometry" />
        </mxCell>
        <mxCell id="44vKcgO6JZs-gFAmP7-q-161" value="" style="edgeStyle=orthogonalEdgeStyle;rounded=0;orthogonalLoop=1;jettySize=auto;html=1;" parent="1" source="44vKcgO6JZs-gFAmP7-q-157" target="44vKcgO6JZs-gFAmP7-q-160" edge="1">
          <mxGeometry relative="1" as="geometry" />
        </mxCell>
        <mxCell id="44vKcgO6JZs-gFAmP7-q-157" value="" style="shape=waypoint;sketch=0;size=6;pointerEvents=1;points=[];fillColor=default;resizable=0;rotatable=0;perimeter=centerPerimeter;snapToPoint=1;rounded=0;" parent="1" vertex="1">
          <mxGeometry x="850" y="3960" width="20" height="20" as="geometry" />
        </mxCell>
        <mxCell id="44vKcgO6JZs-gFAmP7-q-160" value="" style="shape=waypoint;sketch=0;size=6;pointerEvents=1;points=[];fillColor=default;resizable=0;rotatable=0;perimeter=centerPerimeter;snapToPoint=1;rounded=0;" parent="1" vertex="1">
          <mxGeometry x="550" y="3960" width="20" height="20" as="geometry" />
        </mxCell>
        <mxCell id="44vKcgO6JZs-gFAmP7-q-162" value="&lt;font style=&quot;font-size: 20px;&quot;&gt;否&lt;/font&gt;" style="text;html=1;align=center;verticalAlign=middle;resizable=0;points=[];autosize=1;strokeColor=none;fillColor=none;" parent="1" vertex="1">
          <mxGeometry x="641" y="4330" width="40" height="40" as="geometry" />
        </mxCell>
      </root>
    </mxGraphModel>
  </diagram>
</mxfile>
